ffmpeg started on 2016-11-28 at 03:21:59
Report written to "Output/NVENCh264/results/ffmpeg/old_town_cross_2160p50llhp8000k.log"
Command line:
Tools/ffmpeg/ffmpeg -benchmark -y -i Input/y4m/old_town_cross_2160p50.y4m -c:v h264_nvenc -preset llhp -b:v 8000k -an Output/NVENCh264/encoded/old_town_cross_2160p50llhp8000k.mkv
ffmpeg version N-82227-gdb23fde Copyright (c) 2000-2016 the FFmpeg developers
  built with gcc 5.4.0 (Ubuntu 5.4.0-6ubuntu1~16.04.2) 20160609
  configuration: --prefix=/home/jaroslav/ffmpeg_build --pkg-config-flags=--static --extra-cflags=-I/home/jaroslav/ffmpeg_build/include --extra-ldflags=-L/home/jaroslav/ffmpeg_build/lib --bindir=/home/jaroslav/bin --enable-gpl --enable-libass --enable-libfdk-aac --enable-libfreetype --enable-libmp3lame --enable-libopus --enable-libtheora --enable-libvorbis --enable-libvpx --enable-libx264 --enable-libx265 --enable-nvenc --enable-libmfx --enable-libxvid --enable-libgsm --enable-libopencore-amrnb --enable-version3 --enable-nonfree
  libavutil      55. 35.100 / 55. 35.100
  libavcodec     57. 66.101 / 57. 66.101
  libavformat    57. 57.100 / 57. 57.100
  libavdevice    57.  2.100 / 57.  2.100
  libavfilter     6. 66.100 /  6. 66.100
  libswscale      4.  3.100 /  4.  3.100
  libswresample   2.  4.100 /  2.  4.100
  libpostproc    54.  2.100 / 54.  2.100
Input #0, yuv4mpegpipe, from 'Input/y4m/old_town_cross_2160p50.y4m':
  Duration: 00:00:10.00, start: 0.000000, bitrate: 4976642 kb/s
    Stream #0:0: Video: rawvideo (I420 / 0x30323449), yuv420p(progressive), 3840x2160, SAR 1:1 DAR 16:9, 50 fps, 50 tbr, 50 tbn, 50 tbc
[h264_nvenc @ 0x40af120] The variable bitrate rate-control requires the 'qmin' and/or 'qmax' option set.
Output #0, matroska, to 'Output/NVENCh264/encoded/old_town_cross_2160p50llhp8000k.mkv':
  Metadata:
    encoder         : Lavf57.57.100
    Stream #0:0: Video: h264 (h264_nvenc) (Main) (H264 / 0x34363248), yuv420p, 3840x2160 [SAR 1:1 DAR 16:9], q=-1--1, 8000 kb/s, 50 fps, 1k tbn, 50 tbc
    Metadata:
      encoder         : Lavc57.66.101 h264_nvenc
    Side data:
      cpb: bitrate max/min/avg: 0/0/8000000 buffer size: 16000000 vbv_delay: -1
Stream mapping:
  Stream #0:0 -> #0:0 (rawvideo (native) -> h264 (h264_nvenc))
Press [q] to stop, [?] for help
frame=   13 fps=0.0 q=0.0 size=       0kB time=00:00:00.00 bitrate=N/A speed=   0x    frame=   31 fps= 26 q=39.0 size=       1kB time=00:00:00.00 bitrate=5976.0kbits/s speed=0.000843x    frame=   49 fps= 29 q=36.0 size=       1kB time=00:00:00.36 bitrate=  16.6kbits/s speed=0.213x    frame=   55 fps= 25 q=35.0 size=       1kB time=00:00:00.48 bitrate=  12.4kbits/s speed=0.216x    frame=   73 fps= 27 q=34.0 size=       1kB time=00:00:00.84 bitrate=   7.1kbits/s speed=0.307x    frame=   91 fps= 28 q=34.0 size=       1kB time=00:00:01.20 bitrate=   5.0kbits/s speed=0.369x    frame=  109 fps= 29 q=34.0 size=       1kB time=00:00:01.56 bitrate=   3.8kbits/s speed=0.414x    frame=  127 fps= 30 q=34.0 size=       1kB time=00:00:01.92 bitrate=   3.1kbits/s speed=0.448x    frame=  145 fps= 30 q=36.0 size=       1kB time=00:00:02.28 bitrate=   2.6kbits/s speed=0.475x    frame=  163 fps= 31 q=35.0 size=       1kB time=00:00:02.64 bitrate=   2.3kbits/s speed=0.497x    frame=  181 fps= 31 q=34.0 size=       1kB time=00:00:03.00 bitrate=   2.0kbits/s speed=0.515x    frame=  199 fps= 31 q=34.0 size=       1kB time=00:00:03.36 bitrate=   1.8kbits/s speed=0.53x    frame=  217 fps= 32 q=34.0 size=       1kB time=00:00:03.72 bitrate=   1.6kbits/s speed=0.543x    frame=  235 fps= 32 q=33.0 size=       1kB time=00:00:04.08 bitrate=   1.5kbits/s speed=0.554x    frame=  247 fps= 31 q=34.0 size=       1kB time=00:00:04.32 bitrate=   1.4kbits/s speed=0.545x    frame=  258 fps= 30 q=29.0 size=       1kB time=00:00:04.54 bitrate=   1.3kbits/s speed=0.528x    frame=  276 fps= 30 q=34.0 size=       1kB time=00:00:04.90 bitrate=   1.2kbits/s speed=0.538x    frame=  293 fps= 30 q=36.0 size=    4728kB time=00:00:05.24 bitrate=7390.9kbits/s speed=0.545x    frame=  311 fps= 31 q=35.0 size=    4728kB time=00:00:05.60 bitrate=6915.9kbits/s speed=0.553x    frame=  329 fps= 31 q=34.0 size=    4728kB time=00:00:05.96 bitrate=6498.2kbits/s speed=0.56x    frame=  347 fps= 31 q=34.0 size=    4728kB time=00:00:06.32 bitrate=6128.1kbits/s speed=0.567x    frame=  365 fps= 31 q=33.0 size=    4728kB time=00:00:06.68 bitrate=5797.9kbits/s speed=0.573x    frame=  383 fps= 31 q=35.0 size=    4728kB time=00:00:07.04 bitrate=5501.5kbits/s speed=0.578x    frame=  401 fps= 32 q=35.0 size=    4728kB time=00:00:07.40 bitrate=5233.9kbits/s speed=0.583x    frame=  419 fps= 32 q=34.0 size=    4728kB time=00:00:07.76 bitrate=4991.1kbits/s speed=0.588x    frame=  437 fps= 32 q=33.0 size=    4728kB time=00:00:08.12 bitrate=4769.8kbits/s speed=0.592x    frame=  455 fps= 32 q=35.0 size=    4728kB time=00:00:08.48 bitrate=4567.4kbits/s speed=0.596x    frame=  473 fps= 32 q=33.0 size=    4728kB time=00:00:08.84 bitrate=4381.4kbits/s speed=0.599x    frame=  491 fps= 32 q=35.0 size=    4728kB time=00:00:09.20 bitrate=4210.0kbits/s speed=0.603x    frame=  500 fps= 32 q=35.0 Lsize=    9588kB time=00:00:09.98 bitrate=7869.5kbits/s speed=0.641x    
video:9584kB audio:0kB subtitle:0kB other streams:0kB global headers:0kB muxing overhead: 0.045691%
bench: utime=1.100s
bench: maxrss=1409004kB
